<!-- icon666.com - MILLIONS vector ICONS FREE --><svg id="Layer_1" enable-background="new 0 0 2000 2000" viewBox="0 0 2000 2000"  fill="#f5f5f5" xmlns="http://www.w3.org/2000/svg"><g><g><path d="m1505.3 1741.5h-383.5c-35.3 0-64-28.7-64-64v-307.2h-120.5v307.2c0 35.3-28.7 64-64 64h-383.6c-35.3 0-64-28.7-64-64v-573.5c0-35.3 28.7-64 64-64s64 28.7 64 64v509.6h255.5v-307.2c0-35.3 28.7-64 64-64h248.5c35.3 0 64 28.7 64 64v307.2h255.5v-509.6c0-35.3 28.7-64 64-64s64 28.7 64 64v573.6c.1 35.3-28.5 63.9-63.9 63.9z"></path></g><g><path d="m1744 1130.5c-16.4 0-32.8-6.2-45.3-18.7l-698.7-698.8-698.7 698.7c-25 25-65.5 25-90.5 0s-25-65.5 0-90.5l744-744c25-25 65.5-25 90.5 0l744 744c25 25 25 65.5 0 90.5-12.5 12.5-28.9 18.8-45.3 18.8z"></path></g><g><path d="m1443 829.5c-35.3 0-64-28.7-64-64v-254.4c0-35.3 28.7-64 64-64s64 28.7 64 64v254.4c0 35.3-28.6 64-64 64z"></path></g></g></svg>