<!-- icon666.com - MILLIONS vector ICONS FREE --><svg  fill="#555" xmlns="http://www.w3.org/2000/svg" viewBox="0 0 64 64"><g id="outline"><rect x="18" y="14" width="2" height="2"></rect><path d="M3,62H7a1,1,0,0,0,1-1V50H24V61a1,1,0,0,0,1,1H37a1,1,0,0,0,1-1V59a2.87,2.87,0,0,0-3-3H34V41a3,3,0,0,0-3-3H25.193l-.75-2H25a3,3,0,0,0,3-3,2.951,2.951,0,0,0-.3-1.285l4.508-4.508-1.414-1.414L26.285,30.3A2.951,2.951,0,0,0,25,30H24V12h1a3,3,0,0,0,0-6H23.9A5.009,5.009,0,0,0,19,2H15a5.006,5.006,0,0,0-5,5V25.026A4.948,4.948,0,0,0,7,24a5.006,5.006,0,0,0-5,5V61A1,1,0,0,0,3,62Zm25-2H26V50h2Zm7-2a.894.894,0,0,1,1,1v1H30V58Zm-3-6v4H30V52Zm-2-2V44h2v6Zm1-10a1,1,0,0,1,1,1v1H26.693l-.75-2Zm-6-8a1,1,0,0,1,0,2H16V32Zm-9-2V27a1,1,0,0,1,2,0v3ZM15,4h4a3.006,3.006,0,0,1,2.829,2H12.171A3.006,3.006,0,0,1,15,4ZM12,8H25a1,1,0,0,1,0,2H12Zm0,4h2v1.5L12,15Zm0,5.5,3.6-2.7A1,1,0,0,0,16,14V12h6v6H19v2h3v2H12ZM12,24H22v6H20V27a3,3,0,0,0-6,0v7H12Zm0,12H22.307l2.25,6H22.693l-1.256-3.351A1,1,0,0,0,20.5,38H12Zm8.557,6H15a3,3,0,0,1-2.816-2h7.623ZM4,29a3,3,0,0,1,6,0V39a5.006,5.006,0,0,0,5,5H28v4H4ZM4,50H6V60H4Z"></path><path d="M45,21a1,1,0,0,1-1,1,3,3,0,0,0-3,3v3h2V25a1,1,0,0,1,1-1,3,3,0,0,0,3-3V19H45Z"></path><path d="M46,27v1h2V27a1,1,0,0,1,1-1,3,3,0,0,0,3-3V21H50v2a1,1,0,0,1-1,1A3,3,0,0,0,46,27Z"></path><path d="M59,44a3,3,0,0,0,0-6H49V31a1,1,0,0,0-1-1H40a3,3,0,0,0,0,6h1v2a3,3,0,0,0,0,6h6v4H43a3.04,3.04,0,0,0-3,3v8a3.04,3.04,0,0,0,3,3H59a3.04,3.04,0,0,0,3-3V51a3.04,3.04,0,0,0-3-3H53V44ZM43,32h4v6H43Zm-3,2a1,1,0,0,1,0-2h1v2ZM60,59a1.053,1.053,0,0,1-1,1H43a1.053,1.053,0,0,1-1-1V58H60Zm-4.1-9H59a1.053,1.053,0,0,1,1,1v5H42V51a1.053,1.053,0,0,1,1-1h3.1a5,5,0,0,0,9.8,0Zm-2.07,0a3,3,0,0,1-5.658,0ZM49,48V44h2v4Zm-8-6a1,1,0,0,1,0-2H59a1,1,0,0,1,0,2Z"></path></g></svg>